<?xml version="1.0" standalone="no"?><!DOCTYPE svg PUBLIC "-//W3C//DTD SVG 1.1//EN" "http://www.w3.org/Graphics/SVG/1.1/DTD/svg11.dtd"><svg t="1563882493888" class="icon" viewBox="0 0 1986 1024" version="1.1" xmlns="http://www.w3.org/2000/svg" p-id="2898" width="60" height="30" xmlns:xlink="http://www.w3.org/1999/xlink"><defs><style type="text/css"></style></defs><path d="M1756.61706181 408.78350703c15.20533916-3.68030479 9.49469238 13.55537724 24.70003154 9.88001279 8.10161016 10.57161357-12.59207666 23.97879053-4.94000596 49.39512364l-9.05503183-2.47000343-5.7649878 7.41000938c-11.04091435-2.13408281-2.00070263-24.3492917-4.94000595-34.58004433l2.1933624-13.45163731-12.0733752-6.30344795c0-1.64502246 0-3.29498437 0-4.94000596l7.41000937 2.47000343L1756.61706181 408.78350703z" p-id="2899" fill="#13227a"></path><path d="M1770.6120996 475.46865283l5.76498779-7.41000937c33.93290391 20.39728623 63.43462178 45.22575849 93.84530098 69.15020888 3.44318467 24.84329238-8.37825117 34.43184404-4.94000596 59.2701961-151.39143545 13.7381581-289.83017373 30.57863906-434.66128067 49.39512364-45.59625879 5.92306787-98.10358682 8.27451036-138.30041865 19.75508524-59.73455742 17.07266162-81.34708448 60.07047714-153.1204374 69.15514922-35.06910557 4.43118604-61.03377862-8.86731152-98.79024726-4.94000595-45.66047872 4.74734619-100.2080294 36.2497667-148.18537091 54.33019014-142.78594395 53.82630967-291.90991641 112.45430479-419.84620136 177.82046894-38.41348974-39.40149112-60.44591777-91.40493779-88.91023447-138.30535811C301.01948525 687.82964697 210.52844911 547.76070635 126.62244052 408.78844737c-4.42130537-15.95128096 16.10936104-6.94070859 19.76002559-14.82001875l7.41000937 2.47000341 7.41000938-2.47000341c103.08311279 170.22767959 209.27348965 337.34809511 316.12088759 503.81148954 2.9393042-10.22581318-6.10584786-32.44102207 4.94000596-34.57510488l5.7649878 7.41000938 9.05503183-2.47000342c6.55538818 21.66192773-9.33661231 46.26315967-4.94000596 49.39512363 181.22907393-88.79167441 319.1095916-220.93684453 592.72172403-217.33557979-4.18912559-56.86935293 25.91527324-79.45506211 44.45017734-113.60532656-7.81509023-0.41002031-18.83130469 2.37614326-19.7501458-4.94000595l2.47000341-7.40506992-2.47000341-7.41000938c4.2039457 0.91390078 4.65348604-1.92660205 4.94000596-4.94000596l6.69370869-5.99716758-1.75370186-8.82285117c19.08818438 0.67184122 19.47350479 20.04160605 34.57016455 24.70003154l6.00210791 6.69864903 8.81791172-1.75864219c-3.29992383 21.39516739-22.85740987 26.53277432-24.70003154 49.3901833 23.27236963-1.42766191 34.97524541-14.41987822 64.21020293-9.87507246 19.47350479 5.22652676 18.83130469 30.56875927 29.64003838 44.45017734 96.46350469-119.21717373 333.84562998-97.51572598 543.33154072-103.72531377-5.86872773-28.70637715-20.52078662-48.62942227-19.76002559-83.96528818L1770.6120996 475.46865283z" p-id="2900" fill="#13227a"></path><path d="M155.4325576 386.55841836l-9.05503183 2.47000342c0.41002031-7.82002969-2.37614326-18.84118447 4.94000596-19.76002559l5.76498779 7.41000938 9.05503183-2.47000343c-0.41002031 7.82002969 2.37614326 18.83130469-4.94000595 19.76002559L155.4325576 386.55841836z" p-id="2901" fill="#13227a"></path><path d="M1770.6120996 483.28374307c-3.27522393 0-6.32320839-2.07480234-7.41000938-5.35002715l-3.29004404-9.8800128c-1.35850166-4.09526543 0.85462119-8.5165708 4.94494629-9.87507245 4.10020489-1.35850166 8.52151114 0.85956153 9.87507246 4.94988662l3.29004404 9.88001279c1.35850166 4.09526543-0.85462119 8.5165708-4.94494628 9.87507246C1772.25712206 483.15036289 1771.42720077 483.28374307 1770.6120996 483.28374307z" p-id="2902" fill="#13227a"></path><path d="M153.78753603 396.43843115c0.1976001-3.29498437 0.90896133-6.58502842 1.64502245-9.88001279" p-id="2903" fill="#13227a"></path><path d="M153.79247548 404.05098096c-0.15314063 0-0.30628037-0.00494033-0.46436045-0.01482012-4.19900537-0.25194023-7.39518926-3.85814531-7.14324902-8.05221035 0.2223-3.73958526 0.9534208-7.23216973 1.81298232-11.08537471 0.91884112-4.10020489 4.99434609-6.68876836 9.08961153-5.76992724 4.10514521 0.91884112 6.68876836 4.98446631 5.76992724 9.08961152-0.74100058 3.31474394-1.31898164 6.05644805-1.47706172 8.67465088C161.14320526 400.93383711 157.7889413 404.05098096 153.79247548 404.05098096z" p-id="2904" fill="#13227a"></path><path d="M157.0825204 376.67840557c4.16936513-24.39375117 7.82991036-55.6639919 33.25612324-67.18408682" p-id="2905" fill="#13227a"></path><path d="M157.09240018 384.92327656c-0.45942099 0-0.9287209-0.03952002-1.39802167-0.11856005-4.49046563-0.76570137-7.50880987-5.02892666-6.73816904-9.51939229l0.77064081-4.57938633c4.16936513-24.99643213 9.35637188-56.10365244 37.21306817-68.72536846 4.14960557-1.87226279 9.03527138-0.03952002 10.91247363 4.11008555 1.87720224 4.14960557 0.03952002 9.03527138-4.11008555 10.91247364-19.84400596 8.99081191-24.04301133 34.18484414-27.74801601 56.41487314l-0.78052061 4.64854571C164.52217001 382.0877123 161.03452499 384.92327656 157.09240018 384.92327656z" p-id="2906" fill="#13227a"></path><path d="M190.34358309 315.13580615c-1.82286211 0-3.61114453-0.88426143-4.69794638-2.51940322-1.71912217-2.58856347-1.01270127-6.08608828 1.58080166-7.8101499 9.46011182-6.27874805 19.14746484-12.77979609 29.04723721-19.42410498C366.60795028 184.49733799 572.51235585 46.32536006 744.49867674 191.01814648c2.38108271 2.00070263 2.68736308 5.55750703 0.68666046 7.9336503-2.00070263 2.38602305-5.55750703 2.69230342-7.9336503 0.68666044-73.26523477-61.63645957-158.88542519-75.7105374-261.75611777-43.01757509-89.532675 28.45443691-176.34834756 86.71193174-252.94314638 138.11269834-9.91459248 6.65418867-19.62170508 13.17005683-29.09663789 19.45374521C192.49248603 314.83446612 191.41556395 315.13580615 190.34358309 315.13580615z" p-id="2907" fill="#13227a"></path><path d="M1754.14705839 421.94862354c-1.1905418 0-2.39096338-0.37050029-3.42342422-1.13126133-97.73802598-72.60327334-201.20645917-142.1239834-301.27122861-209.35252969-66.28500528-44.53415771-134.79795352-90.56513672-201.12247881-137.13951709-54.6117706 11.68805479-116.14942969 10.80379424-175.67156601 9.94423272-126.07390283-1.81298232-256.36163027-3.69018457-326.85552159 114.02522666-1.6351418 2.72194365-5.16724628 3.61114453-7.88918994 1.97600273-2.72194365-1.63020234-3.61114453-5.16230683-1.97600274-7.88918994 73.90249541-123.40135898 207.58894717-121.47969638 336.8837338-119.61237393 59.78395723 0.86450097 121.593317 1.7487624 175.49866581-10.21099307L1250.79498983 62l2.07480235 1.45730214c66.86792578 46.9992208 136.06753536 93.4896208 202.98980127 138.45355841 100.17344883 67.30758633 203.76538242 136.90239609 301.72076894 209.66868984 2.54904346 1.89202237 3.07762383 5.49822744 1.18560146 8.04727002C1757.63964286 421.14340302 1755.90076113 421.94862354 1754.14705839 421.94862354z" p-id="2908" fill="#13227a"></path><path d="M1160.00261278 588.34285859c-2.01552276 0-4.05080508-0.61750107-5.80944726-1.90190215-4.39660547-3.21100401-5.35002715-9.38107177-2.13902315-13.77273779 99.99066885-136.68009609 264.67566153-140.7111416 423.93652647-144.61374638 64.17068291-1.57092188 124.78950088-3.05786426 181.14509355-12.78967677 5.39942695-0.9287209 10.4629333 2.67254385 11.39165508 8.03245079s-2.67254385 10.4629333-8.03245078 11.38671475c-57.78325459 9.98375273-121.95887695 11.54973516-184.02017696 13.07125722-154.49375918 3.78404472-314.2486248 7.69653018-408.50888642 136.54671592C1166.03436005 586.94483692 1163.04071659 588.34285859 1160.00261278 588.34285859z" p-id="2909" fill="#13227a"></path><path d="M1121.20380262 563.40570605c-1.79816221 0-3.60126474-0.64220098-5.03880644-1.9463625-68.1226875-61.69079971-135.40063447-126.75068349-200.46545859-189.67154414-58.50943506-56.57789268-119.00475352-115.08732862-179.90515195-170.92916015-3.05292393-2.80098369-3.26040381-7.54832988-0.45942101-10.60125381 2.80592403-3.04798359 7.54338955-3.25546435 10.60125382-0.459421 61.04365839 55.98015205 121.61307656 114.55380791 180.19167187 171.20086084 64.97590342 62.83688115 132.16493057 127.81278457 200.10483809 189.33562442 3.07268438 2.78122324 3.3098045 7.52362998 0.52364091 10.60125381C1125.28424794 562.57084531 1123.24896561 563.40570605 1121.20380262 563.40570605z" p-id="2910" fill="#13227a"></path><path d="M497.07845858 790.63611875c-2.04516299 0-4.05080508-0.96330146-5.31050713-2.77134346-51.46004619-73.961775-99.75848818-152.04845566-146.46624873-227.56633329C294.39493681 477.98805606 241.75422948 392.87174609 185.07259598 313.24872412c-2.06986289-2.90472364-1.3881419-6.94070859 1.51658174-9.01057149 2.8997833-2.06492256 6.94070859-1.3881419 9.01057149 1.51658174C252.52344315 385.71861729 305.27777108 471.0127669 356.2932164 553.50099336c46.61883984 75.3746168 94.82342256 153.30815771 146.08586865 226.98341279 2.03528232 2.92942354 1.31404131 6.95552871-1.61538223 8.99081192C499.64232128 790.26067901 498.35297987 790.63611875 497.07845858 790.63611875z" p-id="2911" fill="#13227a"></path><path d="M497.08339804 791.53520029c-2.79604336 0-5.46858721-1.59562177-6.70358848-4.30768564-1.68454248-3.70006435-0.05434013-8.06703047 3.6457251-9.75651241 47.73034161-21.74096777 96.00408369-47.67106114 142.682204-72.75147362 147.49871045-79.23770244 300.03128701-161.18746787 476.28083409-137.7718374 4.02610518 0.5335207 6.86660888 4.23358506 6.32814784 8.26957089-0.5335207 4.02610518-4.26322529 6.85178877-8.26957089 6.32814786-171.52196133-22.77836895-321.9352752 58.01049492-467.37400254 136.14163505-46.89054052 25.19403222-95.37670283 51.23774619-143.54670498 73.18125439C499.14338114 791.32278008 498.10597997 791.53520029 497.08339804 791.53520029z" p-id="2912" fill="#13227a"></path><path d="M488.03824686 879.82299424c-0.46930078 0-0.94848135-0.03457969-1.4276619-0.10868028-5.02398633-0.7805206-8.46223066-5.48834678-7.68171007-10.51233398 3.27028447-21.0147873 5.15736651-42.68165537 6.98516895-63.63222188 0.64714043-7.42482949 1.29428174-14.84965898 2.00564297-22.26954902 0.4841209-5.0585669 4.97458652-8.76851104 10.03809287-8.2942708 5.06350635 0.4841209 8.77345137 4.97952685 8.2942708 10.03809287-0.70148057 7.37048935-1.34368154 14.74591904-1.98588252 22.12628819-1.85250234 21.25684776-3.76922461 43.22999531-7.13336924 64.85734336C496.41649716 876.57740967 492.49413192 879.82299424 488.03824686 879.82299424z" p-id="2913" fill="#13227a"></path></svg>