<?xml version="1.0" standalone="no"?><!DOCTYPE svg PUBLIC "-//W3C//DTD SVG 1.1//EN" "http://www.w3.org/Graphics/SVG/1.1/DTD/svg11.dtd"><svg t="1570409366298" class="icon" viewBox="0 0 1024 1024" version="1.1" xmlns="http://www.w3.org/2000/svg" p-id="1671" xmlns:xlink="http://www.w3.org/1999/xlink" width="200" height="200"><defs><style type="text/css"></style></defs><path d="M928.587294 878.230588h-819.2V462.245647L172.272941 269.854118h693.428706l62.885647 192.391529V878.230588z m-799.924706-19.275294h780.649412V465.377882L851.727059 289.129412H186.247529L128.662588 465.377882V858.955294z" fill="#42210B" p-id="1672"></path><path d="M871.363765 818.838588H166.490353V473.208471l53.127529-1.084236h598.738824l53.007059 1.084236z" fill="#FFD05B" p-id="1673"></path><path d="M298.646588 377.795765m-31.683764 0a31.683765 31.683765 0 1 0 63.367529 0 31.683765 31.683765 0 1 0-63.367529 0Z" fill="#FFFFFF" p-id="1674"></path><path d="M298.646588 419.117176c-22.768941 0-41.321412-18.552471-41.321412-41.321411s18.552471-41.321412 41.321412-41.321412 41.321412 18.552471 41.321412 41.321412-18.552471 41.321412-41.321412 41.321411z m0-63.367529c-12.167529 0-22.046118 9.878588-22.046117 22.046118 0 12.167529 9.878588 22.046118 22.046117 22.046117 12.167529 0 22.046118-9.878588 22.046118-22.046117 0-12.167529-9.878588-22.046118-22.046118-22.046118z" fill="#42210B" p-id="1675"></path><path d="M739.328 377.795765m-31.683765 0a31.683765 31.683765 0 1 0 63.36753 0 31.683765 31.683765 0 1 0-63.36753 0Z" fill="#FFFFFF" p-id="1676"></path><path d="M739.328 419.117176c-22.768941 0-41.321412-18.552471-41.321412-41.321411s18.552471-41.321412 41.321412-41.321412 41.321412 18.552471 41.321412 41.321412-18.552471 41.321412-41.321412 41.321411z m0-63.367529c-12.167529 0-22.046118 9.878588-22.046118 22.046118 0 12.167529 9.878588 22.046118 22.046118 22.046117s22.046118-9.878588 22.046118-22.046117c0-12.167529-9.878588-22.046118-22.046118-22.046118z" fill="#42210B" p-id="1677"></path><path d="M300.212706 383.819294c-2.288941 0-4.698353-0.843294-6.505412-2.529882-3.855059-3.614118-4.216471-9.758118-0.602353-13.613177l201.908706-218.895059c6.384941-7.469176 15.661176-11.685647 25.419294-11.685647h0.240941c9.878588 0 19.034353 4.336941 25.298824 11.926589l198.77647 218.774588c3.614118 3.975529 3.252706 9.999059-0.602352 13.613176-3.975529 3.614118-9.999059 3.252706-13.613177-0.602353l-199.137882-219.25647-0.120471-0.120471c-2.650353-3.252706-6.505412-5.059765-10.721882-5.059764h-0.120471c-4.216471 0-8.192 1.807059-10.842353 5.059764l-0.240941 0.361412L307.320471 380.687059c-1.927529 2.048-4.457412 3.132235-7.107765 3.132235z" fill="#42210B" p-id="1678"></path><path d="M358.279529 591.390118c10.119529 11.203765 15.179294 26.142118 15.179295 44.815058 0 18.432-5.059765 33.370353-15.179295 44.694589-10.601412 11.806118-25.057882 17.709176-43.489882 17.709176s-32.888471-5.903059-43.489882-17.829647c-9.999059-11.324235-15.058824-26.142118-15.058824-44.574118s5.059765-33.370353 15.058824-44.694588c10.360471-12.047059 24.816941-18.070588 43.489882-18.070588 18.432 0.120471 32.888471 6.023529 43.489882 17.950118zM285.756235 603.557647c-6.505412 7.951059-9.758118 18.913882-9.758117 32.768 0 13.733647 3.252706 24.576 9.758117 32.527059 6.746353 8.312471 16.384 12.528941 29.033412 12.528941 12.528941 0 22.046118-3.975529 28.792471-11.926588 6.625882-7.951059 9.999059-19.034353 9.999058-33.008941 0-14.095059-3.373176-25.178353-9.999058-33.370353-6.625882-7.951059-16.263529-11.926588-28.792471-11.926589-12.408471-0.240941-22.046118 3.975529-29.033412 12.408471zM408.877176 575.849412h49.874824c29.153882 0 43.730824 12.288 43.730824 36.98447 0 24.816941-14.697412 37.225412-43.971765 37.225412h-29.876706V696.32h-19.757177V575.849412z m19.757177 16.865882v40.478118h28.672c8.673882 0 15.058824-1.566118 19.275294-4.698353 4.096-3.252706 6.023529-8.432941 6.023529-15.661177 0-7.107765-2.048-12.167529-6.26447-15.299764-3.975529-3.132235-10.24-4.698353-19.034353-4.698353h-28.672zM536.214588 575.849412h86.859294v16.865882h-67.102117v33.370353h63.126588v16.865882h-63.126588V679.454118h69.993411v16.865882h-89.750588V575.849412zM661.383529 575.849412h19.757177l59.51247 86.859294h0.722824V575.849412h19.877647v120.470588h-19.275294l-60.235294-88.064h-0.722824V696.32H661.383529V575.849412z" fill="#42210B" p-id="1679"></path><path d="M520.312471 188.536471m-25.901177 0a25.901176 25.901176 0 1 0 51.802353 0 25.901176 25.901176 0 1 0-51.802353 0Z" fill="#F15A24" p-id="1680"></path></svg>